<?xml version="1.0" standalone="no"?>
<!DOCTYPE svg PUBLIC "-//W3C//DTD SVG 20010904//EN"
 "http://www.w3.org/TR/2001/REC-SVG-20010904/DTD/svg10.dtd">
<svg version="1.0" xmlns="http://www.w3.org/2000/svg"
 width="900.000000pt" height="700.000000pt" viewBox="0 0 900.000000 700.000000"
 preserveAspectRatio="xMidYMid meet">

<g transform="translate(0.000000,700.000000) scale(0.100000,-0.100000)"
fill="#000000" stroke="none">
<path d="M4012 6518 c-21 -21 -13 -25 42 -20 47 4 59 1 90 -23 19 -15 52 -52
72 -82 34 -51 37 -62 41 -147 4 -67 1 -103 -11 -136 -9 -25 -16 -54 -16 -65 0
-19 -25 -103 -39 -135 -44 -94 -121 -220 -134 -220 -7 0 -41 14 -77 32 -75 36
-83 39 -165 62 -33 10 -73 24 -88 32 -16 8 -35 14 -42 14 -28 0 -91 36 -121
69 -37 40 -49 94 -34 151 12 44 60 90 93 90 30 -1 107 -23 135 -38 12 -7 32
-10 42 -7 14 4 20 2 20 -9 0 -9 9 -16 20 -16 24 0 26 15 3 24 -12 5 -14 9 -5
18 8 8 10 37 5 94 -5 72 -3 88 15 123 20 38 46 72 85 114 24 25 15 33 -22 18
-37 -16 -61 -42 -100 -109 -36 -62 -41 -130 -14 -187 18 -38 11 -56 -15 -37
-42 30 -85 42 -155 42 -85 0 -102 -11 -142 -90 -41 -80 -33 -127 31 -196 38
-41 141 -104 169 -104 8 0 36 -7 62 -15 26 -8 73 -22 103 -31 30 -9 62 -20 70
-25 8 -5 22 -12 30 -16 8 -4 32 -17 52 -30 47 -29 50 -29 87 5 35 32 151 268
151 307 0 15 6 41 14 58 8 18 17 55 20 82 3 28 8 74 12 103 4 30 2 63 -3 75
-6 12 -19 49 -29 82 -32 102 -95 155 -186 155 -30 0 -59 -5 -66 -12z"/>
<path d="M4536 5991 c-48 -23 -166 -139 -166 -162 0 -10 -4 -21 -10 -24 -5 -3
-10 -17 -10 -31 0 -21 5 -24 34 -24 18 0 39 7 46 15 7 8 18 15 26 15 7 0 33
14 57 30 25 17 56 30 71 30 14 0 42 8 63 17 50 23 50 23 34 33 -8 5 -35 2 -65
-7 -47 -14 -66 -21 -154 -59 -60 -26 -68 -15 -24 31 38 42 101 90 144 111 35
16 37 16 63 -5 32 -24 45 -27 45 -8 0 46 -92 69 -154 38z"/>
<path d="M3487 5644 c-17 -17 -3 -24 51 -24 56 0 215 -24 233 -36 5 -3 7 -10
4 -15 -4 -5 3 -9 14 -9 10 0 26 -3 35 -6 11 -4 16 0 16 14 0 24 -41 52 -95 65
-51 12 -248 21 -258 11z"/>
<path d="M4610 5620 c-8 -5 -36 -19 -63 -31 -55 -26 -92 -66 -127 -134 -14
-28 -28 -51 -32 -53 -5 -2 -8 -8 -8 -14 0 -5 -7 -24 -15 -41 -8 -18 -21 -74
-29 -125 -8 -51 -18 -97 -21 -102 -11 -17 -69 -9 -110 15 -70 42 -90 49 -200
76 -22 5 -49 14 -60 19 -55 26 -117 40 -182 40 -70 0 -72 -1 -101 -36 -39 -47
-51 -127 -27 -179 10 -19 21 -35 25 -35 4 0 13 -14 20 -30 13 -32 135 -150
154 -150 7 0 36 -25 66 -55 30 -30 59 -55 66 -55 6 0 27 -13 45 -30 19 -16 45
-35 59 -42 14 -7 38 -23 54 -36 39 -31 72 -43 119 -44 61 -1 66 17 10 42 -26
12 -64 29 -83 38 -31 15 -112 70 -228 154 -81 61 -163 136 -198 183 -20 28
-50 64 -66 81 -18 20 -32 46 -35 70 -5 37 -3 40 31 57 44 20 119 22 178 3 24
-7 72 -22 108 -32 36 -10 76 -24 90 -31 14 -7 31 -13 38 -13 6 0 35 -11 62
-24 97 -47 386 -116 484 -116 45 0 170 -37 208 -62 14 -9 47 -63 77 -124 30
-60 57 -117 62 -126 5 -10 9 -25 9 -34 0 -9 6 -28 14 -42 8 -15 25 -49 38 -76
12 -26 52 -85 88 -130 36 -45 82 -104 103 -131 20 -28 56 -66 78 -85 39 -33
149 -173 196 -250 12 -19 30 -44 41 -56 31 -32 55 -83 73 -153 15 -60 15 -69
-1 -140 -20 -89 -29 -110 -79 -171 -20 -25 -44 -56 -53 -70 -35 -55 -228 -247
-303 -302 -44 -32 -84 -62 -90 -66 -5 -4 -39 -22 -75 -39 -62 -30 -95 -42
-220 -77 -133 -37 -172 -45 -283 -61 -122 -17 -159 -15 -367 16 -36 6 -100 14
-142 20 -103 12 -211 41 -303 80 -16 7 -88 51 -158 97 -87 58 -131 82 -138 75
-14 -14 89 -117 178 -176 41 -27 102 -57 140 -68 37 -11 76 -24 85 -30 10 -5
28 -9 40 -9 13 0 45 -7 72 -15 27 -8 68 -15 92 -15 24 0 71 -6 106 -14 133
-30 460 -28 553 3 17 6 64 20 105 31 41 12 100 28 130 37 59 17 181 69 190 81
3 4 21 16 40 27 88 48 161 115 388 352 38 40 101 131 129 188 58 117 56 102
28 149 -18 31 -25 58 -26 97 0 35 -7 64 -20 84 -10 17 -22 37 -26 45 -3 8 -18
33 -32 55 -14 22 -35 57 -46 77 -11 21 -45 64 -75 95 -31 32 -65 74 -77 93
-12 20 -54 66 -92 103 -39 37 -71 72 -71 77 0 6 -30 52 -67 103 -82 112 -90
125 -103 157 -6 14 -14 34 -19 45 -5 11 -18 52 -31 90 -12 39 -30 84 -41 100
-10 17 -23 40 -29 52 -5 13 -27 42 -48 65 -42 45 -42 47 -62 213 -10 91 -8
111 31 213 14 37 9 124 -9 155 -37 62 -178 109 -232 77z m133 -61 c55 -28 67
-49 67 -114 0 -33 -4 -65 -9 -70 -12 -14 -41 -150 -41 -195 0 -20 9 -63 20
-95 11 -32 20 -61 20 -65 0 -4 -30 -1 -67 7 -38 8 -104 18 -148 23 -44 4 -93
13 -108 19 -16 6 -41 11 -57 11 -37 0 -48 21 -43 79 13 142 100 316 191 379
38 26 56 32 100 32 29 0 63 -5 75 -11z"/>
<path d="M3730 5562 c-14 -2 -56 -13 -95 -23 -38 -11 -90 -26 -114 -32 -37
-11 -41 -14 -28 -25 17 -14 67 -5 134 24 18 8 65 14 112 14 65 0 81 3 81 15 0
9 -9 15 -23 15 -13 0 -27 4 -32 8 -6 4 -21 6 -35 4z"/>
<path d="M4355 4613 c-11 -52 -19 -58 -67 -55 -25 2 -64 -1 -86 -8 -53 -14
-160 -101 -168 -138 -4 -15 -10 -31 -13 -37 -4 -5 -17 -37 -30 -70 -43 -115
-37 -110 -138 -107 -66 3 -96 0 -118 -12 -16 -9 -35 -16 -41 -16 -19 0 -94
-71 -94 -89 0 -9 -4 -21 -9 -26 -6 -6 -15 -41 -21 -80 -18 -120 -52 -249 -68
-262 -9 -7 -27 -13 -40 -13 -48 0 -172 -129 -172 -179 0 -12 -6 -32 -12 -44
-7 -12 -15 -71 -18 -132 l-5 -110 -43 -24 -44 -23 5 -62 c4 -60 17 -118 42
-186 44 -121 46 -145 25 -391 l-13 -157 23 -33 c13 -19 44 -56 70 -84 27 -27
65 -81 86 -120 20 -38 48 -88 60 -110 39 -68 64 -127 64 -150 0 -12 3 -25 8
-29 7 -8 23 -93 47 -261 15 -111 34 -185 45 -185 19 0 26 160 9 230 -11 42
-28 124 -48 231 -10 49 -58 158 -97 221 -29 45 -31 63 -6 53 9 -4 35 -14 56
-22 22 -8 63 -24 90 -37 28 -13 71 -31 96 -40 25 -10 53 -22 62 -27 10 -5 25
-9 35 -9 24 0 -83 98 -132 120 -22 9 -76 32 -120 50 -44 17 -87 36 -95 41 -8
5 -24 13 -35 18 -32 14 -112 89 -135 125 -17 29 -21 51 -21 138 -1 74 3 113
15 140 20 46 21 139 2 193 -14 39 -28 88 -62 212 -22 80 -14 113 27 113 16 0
41 -7 54 -16 14 -9 33 -13 45 -9 25 8 26 23 3 32 -10 4 -29 17 -42 29 -23 21
-24 26 -18 126 7 139 35 218 97 275 46 43 81 50 128 26 70 -36 133 -147 182
-318 4 -16 18 -55 30 -85 12 -30 25 -66 30 -80 20 -63 42 -100 71 -124 47 -40
56 -19 21 50 -28 55 -40 84 -76 182 -27 74 -38 108 -46 137 -5 17 -17 54 -28
82 -20 53 -20 53 0 108 10 30 18 67 16 82 l-3 28 -19 -37 c-30 -62 -37 -63
-96 -10 l-53 48 17 75 c9 41 24 108 33 149 32 148 43 173 93 197 36 18 63 22
133 23 86 0 89 -1 121 -32 17 -18 50 -55 72 -83 21 -27 46 -58 55 -68 35 -38
180 -349 220 -472 21 -63 82 -165 99 -165 14 0 12 24 -4 57 -8 15 -22 55 -32
88 -9 33 -23 74 -29 90 -27 64 -35 82 -63 145 -78 172 -76 164 -58 218 20 59
14 87 -15 69 -14 -9 -22 -9 -27 -1 -4 6 -16 11 -28 10 -14 -1 -41 24 -87 77
-81 96 -82 87 17 309 36 82 80 108 180 108 105 0 152 -22 213 -100 26 -34 67
-96 90 -138 23 -42 48 -88 56 -102 7 -14 45 -86 82 -160 38 -74 82 -158 100
-185 35 -55 142 -175 156 -175 21 0 5 33 -68 141 -70 104 -104 166 -178 319
-14 30 -39 78 -55 105 -17 28 -33 57 -36 65 -29 66 -116 189 -164 231 -42 36
-59 59 -69 94 -16 55 -29 65 -36 28z"/>
<path d="M5730 3561 c0 -6 12 -32 27 -58 24 -44 27 -58 27 -153 0 -100 -5
-142 -40 -305 -47 -213 -51 -219 -333 -502 -208 -208 -253 -258 -279 -312 -49
-99 -41 -122 19 -49 19 23 123 131 231 241 195 196 197 198 212 175 8 -13 18
-36 22 -53 4 -16 10 -35 15 -40 4 -6 11 -30 15 -53 5 -32 11 -42 26 -42 10 0
21 7 25 15 7 21 -24 101 -59 149 -46 64 -40 97 32 166 33 32 60 66 60 75 0 10
6 26 13 34 8 9 19 41 25 71 6 30 16 82 22 115 20 99 31 184 36 298 6 103 5
109 -21 153 -42 71 -75 104 -75 75z"/>
<path d="M5608 2255 c-10 -13 -18 -30 -18 -38 0 -14 -136 -149 -176 -174 -50
-33 -359 -257 -404 -294 -14 -12 -56 -41 -95 -67 -89 -58 -195 -149 -195 -168
0 -8 -4 -14 -10 -14 -5 0 -10 -7 -10 -15 0 -8 2 -15 5 -15 9 0 87 51 126 81
20 16 42 29 48 29 11 0 68 36 81 51 8 8 354 264 464 342 64 45 116 93 156 142
54 66 60 78 60 119 0 52 -7 56 -32 21z"/>
<path d="M5617 1773 c-4 -181 -11 -234 -43 -310 -8 -17 -14 -35 -14 -40 0 -5
-24 -53 -52 -108 -29 -55 -62 -120 -72 -145 -11 -25 -26 -52 -33 -61 -7 -8
-13 -20 -13 -26 0 -5 -10 -30 -23 -54 -39 -74 -57 -143 -57 -223 0 -76 14
-102 26 -48 3 15 10 37 15 50 5 13 9 40 9 61 0 22 6 44 15 51 8 7 15 18 15 25
0 7 14 37 30 68 17 31 30 62 30 69 0 8 11 30 25 50 14 20 25 48 25 62 0 14 14
41 30 59 17 19 30 41 30 50 0 8 13 41 29 73 27 57 46 116 70 217 17 73 14 259
-5 318 -9 27 -20 49 -25 49 -4 0 -10 -84 -12 -187z"/>
</g>
</svg>
